<?xml version="1.0" encoding="UTF-8"?>
<svg xmlns="http://www.w3.org/2000/svg" xmlns:xlink="http://www.w3.org/1999/xlink" width="1920" height="1080" viewBox="0 0 1920 1080">
<defs>
<g>
<g id="glyph-0-0">
<path d="M 2.257812 -4.882812 L 2.257812 -4.699219 C 2.082031 -4.683594 1.964844 -4.65625 1.898438 -4.625 C 1.835938 -4.589844 1.800781 -4.515625 1.800781 -4.398438 C 1.800781 -4.367188 1.804688 -4.332031 1.8125 -4.289062 C 1.820312 -4.25 1.832031 -4.207031 1.84375 -4.160156 L 2.679688 -1.636719 L 2.742188 -1.636719 L 3.570312 -3.753906 C 3.574219 -3.765625 3.539062 -3.871094 3.46875 -4.074219 C 3.398438 -4.277344 3.347656 -4.398438 3.320312 -4.445312 C 3.265625 -4.53125 3.207031 -4.589844 3.140625 -4.628906 C 3.074219 -4.664062 2.957031 -4.6875 2.789062 -4.699219 L 2.789062 -4.882812 L 5.046875 -4.882812 L 5.046875 -4.699219 C 4.839844 -4.683594 4.703125 -4.660156 4.632812 -4.628906 C 4.5625 -4.601562 4.527344 -4.539062 4.527344 -4.441406 C 4.527344 -4.417969 4.535156 -4.371094 4.550781 -4.304688 C 4.566406 -4.238281 4.59375 -4.144531 4.628906 -4.027344 L 5.382812 -1.703125 L 5.429688 -1.703125 L 6.21875 -4.078125 C 6.230469 -4.121094 6.242188 -4.164062 6.253906 -4.210938 C 6.261719 -4.261719 6.265625 -4.3125 6.265625 -4.375 C 6.265625 -4.507812 6.214844 -4.597656 6.117188 -4.640625 C 6.054688 -4.667969 5.9375 -4.6875 5.765625 -4.699219 L 5.765625 -4.882812 L 7.089844 -4.882812 L 7.089844 -4.699219 C 6.980469 -4.683594 6.890625 -4.652344 6.832031 -4.613281 C 6.726562 -4.539062 6.644531 -4.414062 6.585938 -4.234375 L 5.136719 0.121094 L 4.949219 0.121094 L 3.734375 -3.265625 L 3.683594 -3.265625 L 2.363281 0.121094 L 2.160156 0.121094 L 0.636719 -4.234375 C 0.570312 -4.425781 0.503906 -4.546875 0.4375 -4.597656 C 0.371094 -4.648438 0.269531 -4.6875 0.128906 -4.703125 L 0.128906 -4.882812 Z "/>
</g>
<g id="glyph-0-1">
<path d="M 0.433594 -4.429688 C 0.433594 -4.585938 0.488281 -4.71875 0.597656 -4.828125 C 0.707031 -4.9375 0.839844 -4.992188 0.996094 -4.992188 C 1.148438 -4.992188 1.277344 -4.9375 1.386719 -4.828125 C 1.496094 -4.71875 1.550781 -4.585938 1.550781 -4.429688 C 1.550781 -4.273438 1.496094 -4.140625 1.386719 -4.03125 C 1.277344 -3.921875 1.148438 -3.867188 0.996094 -3.867188 C 0.839844 -3.867188 0.707031 -3.921875 0.597656 -4.03125 C 0.488281 -4.140625 0.433594 -4.273438 0.433594 -4.429688 Z M 0.117188 -0.171875 C 0.242188 -0.195312 0.332031 -0.226562 0.378906 -0.269531 C 0.449219 -0.332031 0.484375 -0.445312 0.484375 -0.609375 L 0.484375 -2.734375 C 0.484375 -2.878906 0.457031 -2.976562 0.410156 -3.03125 C 0.359375 -3.085938 0.261719 -3.125 0.117188 -3.148438 L 0.117188 -3.324219 L 1.503906 -3.324219 L 1.503906 -0.582031 C 1.503906 -0.425781 1.527344 -0.324219 1.574219 -0.277344 C 1.621094 -0.234375 1.707031 -0.199219 1.835938 -0.171875 L 1.835938 0 L 0.117188 0 Z "/>
</g>
<g id="glyph-0-2">
<path d="M 0.117188 -3.007812 L 0.117188 -3.210938 C 0.179688 -3.269531 0.257812 -3.335938 0.351562 -3.417969 C 0.476562 -3.53125 0.59375 -3.652344 0.707031 -3.773438 C 0.925781 -4.011719 1.121094 -4.269531 1.300781 -4.546875 L 1.484375 -4.546875 L 1.484375 -3.324219 L 2.171875 -3.324219 L 2.171875 -3.007812 L 1.484375 -3.007812 L 1.484375 -0.835938 C 1.484375 -0.734375 1.5 -0.648438 1.53125 -0.582031 C 1.578125 -0.476562 1.65625 -0.421875 1.761719 -0.421875 C 1.855469 -0.421875 1.9375 -0.457031 2 -0.523438 C 2.0625 -0.589844 2.125 -0.683594 2.191406 -0.800781 L 2.363281 -0.714844 C 2.277344 -0.519531 2.175781 -0.355469 2.058594 -0.234375 C 1.851562 -0.015625 1.601562 0.09375 1.300781 0.09375 C 1.132812 0.09375 0.984375 0.0625 0.855469 0 C 0.613281 -0.121094 0.488281 -0.34375 0.488281 -0.667969 L 0.488281 -3.007812 Z "/>
</g>
<g id="glyph-0-3">
<path d="M 0.117188 -0.171875 C 0.25 -0.1875 0.34375 -0.226562 0.40625 -0.28125 C 0.46875 -0.335938 0.5 -0.445312 0.5 -0.609375 L 0.5 -4.289062 C 0.5 -4.433594 0.476562 -4.53125 0.421875 -4.589844 C 0.371094 -4.648438 0.269531 -4.6875 0.117188 -4.703125 L 0.117188 -4.882812 L 1.511719 -4.882812 L 1.511719 -2.847656 C 1.660156 -3.027344 1.816406 -3.167969 1.980469 -3.265625 C 2.144531 -3.363281 2.328125 -3.410156 2.53125 -3.410156 C 2.808594 -3.410156 3.039062 -3.328125 3.21875 -3.167969 C 3.402344 -3.007812 3.492188 -2.734375 3.492188 -2.34375 L 3.492188 -0.609375 C 3.492188 -0.449219 3.519531 -0.339844 3.574219 -0.289062 C 3.628906 -0.238281 3.722656 -0.199219 3.851562 -0.171875 L 3.851562 0 L 2.15625 0 L 2.15625 -0.171875 C 2.285156 -0.199219 2.371094 -0.234375 2.417969 -0.277344 C 2.464844 -0.324219 2.488281 -0.425781 2.488281 -0.582031 L 2.488281 -2.332031 C 2.488281 -2.496094 2.472656 -2.621094 2.441406 -2.703125 C 2.382812 -2.851562 2.273438 -2.921875 2.105469 -2.921875 C 1.980469 -2.921875 1.851562 -2.867188 1.71875 -2.75 C 1.585938 -2.636719 1.519531 -2.558594 1.519531 -2.515625 L 1.519531 -0.582031 C 1.519531 -0.425781 1.542969 -0.324219 1.589844 -0.277344 C 1.636719 -0.234375 1.726562 -0.199219 1.855469 -0.171875 L 1.855469 0 L 0.117188 0 Z "/>
</g>
<g id="glyph-0-4">
<path d="M 1.820312 -0.308594 C 1.976562 -0.308594 2.113281 -0.375 2.238281 -0.515625 C 2.359375 -0.652344 2.421875 -0.75 2.421875 -0.808594 L 2.421875 -2.5625 C 2.421875 -2.621094 2.371094 -2.710938 2.265625 -2.824219 C 2.160156 -2.941406 2.019531 -2.996094 1.84375 -2.996094 C 1.589844 -2.996094 1.414062 -2.820312 1.324219 -2.464844 C 1.273438 -2.273438 1.25 -2.003906 1.25 -1.65625 C 1.25 -1.285156 1.273438 -1.007812 1.320312 -0.816406 C 1.40625 -0.476562 1.574219 -0.308594 1.820312 -0.308594 Z M 0.183594 -1.5625 C 0.183594 -2.132812 0.320312 -2.585938 0.589844 -2.914062 C 0.863281 -3.246094 1.1875 -3.410156 1.570312 -3.410156 C 1.761719 -3.410156 1.929688 -3.363281 2.078125 -3.269531 C 2.167969 -3.214844 2.285156 -3.113281 2.421875 -2.964844 L 2.421875 -4.289062 C 2.421875 -4.46875 2.386719 -4.582031 2.316406 -4.625 C 2.246094 -4.667969 2.101562 -4.695312 1.878906 -4.703125 L 1.878906 -4.882812 L 3.433594 -4.882812 L 3.433594 -0.726562 C 3.433594 -0.574219 3.464844 -0.472656 3.519531 -0.414062 C 3.574219 -0.355469 3.6875 -0.320312 3.851562 -0.308594 L 3.851562 -0.140625 C 3.445312 -0.101562 3.1875 -0.0703125 3.066406 -0.0507812 C 2.949219 -0.03125 2.742188 0.0195312 2.449219 0.101562 L 2.449219 -0.375 C 2.3125 -0.234375 2.1875 -0.128906 2.074219 -0.0585938 C 1.894531 0.046875 1.703125 0.101562 1.496094 0.101562 C 1.144531 0.101562 0.835938 -0.046875 0.574219 -0.34375 C 0.3125 -0.644531 0.183594 -1.050781 0.183594 -1.5625 Z "/>
</g>
<g id="glyph-0-5">
<path d="M 0.128906 -0.171875 C 0.269531 -0.1875 0.367188 -0.222656 0.417969 -0.273438 C 0.472656 -0.320312 0.503906 -0.417969 0.507812 -0.558594 L 0.515625 -0.769531 L 0.515625 -2.734375 C 0.515625 -2.882812 0.488281 -2.984375 0.4375 -3.039062 C 0.386719 -3.09375 0.285156 -3.128906 0.128906 -3.148438 L 0.128906 -3.324219 L 1.503906 -3.324219 L 1.503906 -2.757812 C 1.65625 -2.957031 1.808594 -3.117188 1.957031 -3.234375 C 2.109375 -3.351562 2.28125 -3.410156 2.480469 -3.410156 C 2.628906 -3.410156 2.761719 -3.363281 2.878906 -3.265625 C 3 -3.171875 3.058594 -3.03125 3.058594 -2.847656 C 3.058594 -2.707031 3.015625 -2.59375 2.933594 -2.5 C 2.847656 -2.410156 2.742188 -2.363281 2.605469 -2.363281 C 2.453125 -2.363281 2.320312 -2.433594 2.210938 -2.578125 C 2.097656 -2.722656 2.019531 -2.792969 1.976562 -2.792969 C 1.878906 -2.792969 1.78125 -2.734375 1.683594 -2.613281 C 1.585938 -2.496094 1.539062 -2.328125 1.539062 -2.105469 L 1.539062 -0.742188 C 1.539062 -0.5 1.574219 -0.351562 1.640625 -0.289062 C 1.710938 -0.230469 1.847656 -0.191406 2.054688 -0.171875 L 2.054688 0 L 0.128906 0 Z "/>
</g>
<g id="glyph-0-6">
<path d="M 1.582031 -0.414062 C 1.699219 -0.414062 1.808594 -0.449219 1.910156 -0.519531 C 1.96875 -0.5625 2.035156 -0.625 2.113281 -0.714844 L 2.113281 -1.769531 C 1.921875 -1.722656 1.75 -1.648438 1.605469 -1.546875 C 1.359375 -1.375 1.234375 -1.15625 1.234375 -0.890625 C 1.234375 -0.734375 1.269531 -0.617188 1.34375 -0.535156 C 1.414062 -0.453125 1.492188 -0.414062 1.582031 -0.414062 Z M 0.183594 -0.671875 C 0.183594 -0.996094 0.339844 -1.253906 0.652344 -1.445312 C 0.964844 -1.636719 1.457031 -1.828125 2.125 -2.019531 L 2.125 -2.546875 C 2.125 -2.761719 2.078125 -2.917969 1.988281 -3.019531 C 1.898438 -3.121094 1.734375 -3.175781 1.507812 -3.175781 C 1.378906 -3.175781 1.269531 -3.148438 1.1875 -3.101562 C 1.105469 -3.054688 1.0625 -2.992188 1.0625 -2.921875 C 1.0625 -2.890625 1.066406 -2.867188 1.074219 -2.847656 C 1.085938 -2.832031 1.097656 -2.8125 1.117188 -2.789062 L 1.160156 -2.742188 C 1.191406 -2.699219 1.21875 -2.65625 1.238281 -2.609375 C 1.257812 -2.558594 1.269531 -2.507812 1.269531 -2.453125 C 1.269531 -2.316406 1.222656 -2.214844 1.132812 -2.140625 C 1.042969 -2.066406 0.9375 -2.027344 0.816406 -2.027344 C 0.679688 -2.027344 0.5625 -2.070312 0.464844 -2.152344 C 0.367188 -2.234375 0.316406 -2.351562 0.316406 -2.507812 C 0.316406 -2.785156 0.449219 -3.003906 0.707031 -3.167969 C 0.96875 -3.328125 1.289062 -3.410156 1.671875 -3.410156 C 2.082031 -3.410156 2.421875 -3.332031 2.699219 -3.175781 C 2.972656 -3.015625 3.105469 -2.71875 3.105469 -2.292969 L 3.105469 -0.542969 C 3.105469 -0.492188 3.121094 -0.449219 3.148438 -0.410156 C 3.175781 -0.375 3.203125 -0.355469 3.238281 -0.355469 C 3.265625 -0.355469 3.289062 -0.363281 3.3125 -0.371094 C 3.335938 -0.382812 3.371094 -0.410156 3.417969 -0.457031 L 3.527344 -0.308594 C 3.386719 -0.144531 3.230469 -0.0273438 3.058594 0.0390625 C 2.949219 0.0820312 2.835938 0.101562 2.714844 0.101562 C 2.5 0.101562 2.34375 0.0390625 2.246094 -0.0859375 C 2.191406 -0.15625 2.148438 -0.261719 2.125 -0.398438 C 1.925781 -0.199219 1.699219 -0.0585938 1.445312 0.0234375 C 1.292969 0.0742188 1.144531 0.101562 0.996094 0.101562 C 0.796875 0.101562 0.613281 0.0390625 0.441406 -0.0859375 C 0.269531 -0.210938 0.183594 -0.40625 0.183594 -0.671875 Z "/>
</g>
<g id="glyph-0-7">
<path d="M 1.722656 -3.324219 L 1.722656 -3.148438 C 1.640625 -3.140625 1.570312 -3.125 1.519531 -3.097656 C 1.46875 -3.070312 1.441406 -3.015625 1.441406 -2.933594 C 1.441406 -2.90625 1.445312 -2.878906 1.453125 -2.851562 C 1.460938 -2.828125 1.472656 -2.789062 1.496094 -2.734375 L 2.03125 -1.320312 L 2.070312 -1.320312 L 2.539062 -2.507812 C 2.539062 -2.523438 2.519531 -2.59375 2.484375 -2.722656 C 2.445312 -2.847656 2.414062 -2.933594 2.386719 -2.984375 C 2.351562 -3.050781 2.3125 -3.089844 2.28125 -3.105469 C 2.246094 -3.121094 2.175781 -3.136719 2.070312 -3.148438 L 2.070312 -3.324219 L 3.757812 -3.324219 L 3.757812 -3.148438 C 3.65625 -3.144531 3.574219 -3.132812 3.511719 -3.109375 C 3.449219 -3.089844 3.417969 -3.046875 3.417969 -2.988281 C 3.417969 -2.953125 3.421875 -2.910156 3.429688 -2.867188 C 3.4375 -2.820312 3.453125 -2.757812 3.476562 -2.679688 L 3.84375 -1.386719 L 3.886719 -1.386719 L 4.40625 -2.765625 C 4.414062 -2.789062 4.417969 -2.8125 4.421875 -2.832031 C 4.425781 -2.851562 4.429688 -2.875 4.429688 -2.890625 C 4.429688 -2.992188 4.398438 -3.058594 4.339844 -3.089844 C 4.28125 -3.121094 4.191406 -3.140625 4.078125 -3.148438 L 4.078125 -3.324219 L 5.058594 -3.324219 L 5.058594 -3.148438 C 4.972656 -3.132812 4.902344 -3.101562 4.851562 -3.058594 C 4.800781 -3.015625 4.75 -2.925781 4.699219 -2.789062 L 3.574219 0.101562 L 3.410156 0.101562 L 2.679688 -2.085938 L 2.648438 -2.085938 L 1.769531 0.101562 L 1.59375 0.101562 L 0.527344 -2.597656 C 0.4375 -2.820312 0.371094 -2.964844 0.328125 -3.027344 C 0.285156 -3.089844 0.214844 -3.128906 0.117188 -3.148438 L 0.117188 -3.324219 Z "/>
</g>
</g>
</defs>
<g fill="rgb(100%, 100%, 100%)" fill-opacity="1">
<use xlink:href="#glyph-0-0" x="30" y="25.416992"/>
<use xlink:href="#glyph-0-1" x="37" y="25.416992"/>
<use xlink:href="#glyph-0-2" x="39" y="25.416992"/>
<use xlink:href="#glyph-0-3" x="41" y="25.416992"/>
<use xlink:href="#glyph-0-4" x="45" y="25.416992"/>
<use xlink:href="#glyph-0-5" x="49" y="25.416992"/>
<use xlink:href="#glyph-0-6" x="52" y="25.416992"/>
<use xlink:href="#glyph-0-7" x="56" y="25.416992"/>
</g>
</svg>
